<?xml version="1.0" encoding="utf-8"?>
<!-- Generator: Adobe Illustrator 19.2.1, SVG Export Plug-In . SVG Version: 6.00 Build 0)  -->
<svg version="1.1" id="Layer_1" xmlns="http://www.w3.org/2000/svg" xmlns:xlink="http://www.w3.org/1999/xlink" x="0px" y="0px"
	 viewBox="0 0 416.7 548.3" style="enable-background:new 0 0 416.7 548.3;" xml:space="preserve">
<style type="text/css">
	.st0{opacity:0.7;}
	.st1{fill:#1A1A1A;}
</style>
<g class="st0">
	<g>
		<path class="st1" d="M363.7,286.4l-108.9-0.7l-0.6-1.8l100-69.5L363.7,286.4z M258,283.7l103.4,0.7l-8.7-66.5L258,283.7z"/>
	</g>
	<g>
		<path class="st1" d="M327.3,356.9L257.1,303l0.5-1.8l104.9-16.8l1,1.4L327.3,356.9z M260.1,302.8l66.5,51l34.2-67.1L260.1,302.8z"
			/>
	</g>
	<g>
		<path class="st1" d="M256.8,303.3l-3.1-19.6l108.9,0.7l0.2,2L256.8,303.3z M256,285.7l2.5,15.3l92-14.7L256,285.7z"/>
	</g>
	<g>
		<path class="st1" d="M254.1,286.4L239,195.3l114.7,19.8l0.4,1.8L254.1,286.4z M241.4,197.8l14.2,85.2l95.3-66.3L241.4,197.8z"/>
	</g>
	<g>
		<path class="st1" d="M281.5,359.9l-24.8-57.3l1.5-1.2l69.2,53.2l-0.5,1.8L281.5,359.9z M260.1,305.3l22.7,52.5l41.5-3.2
			L260.1,305.3z"/>
	</g>
	<g>
		<path class="st1" d="M254.1,285.4l-57.5-67.4l44.3-22.9l14.9,89.5L254.1,285.4z M199.8,218.6l53.5,62.7l-13.9-83.2L199.8,218.6z"
			/>
	</g>
	<g>
		<path class="st1" d="M281.7,359.7l-73.4-39.9l0.2-1.8l8.1-2.2l66.1,42.2L281.7,359.7z M211.4,319.3l46.4,25.2L216.2,318
			L211.4,319.3z"/>
	</g>
	<g>
		<path class="st1" d="M186.8,417.8l-1.5-1.1l22.7-99.2l74.6,40.5l0,1.7L186.8,417.8z M209.4,320.5l-21.6,94.3l92.3-55.9
			L209.4,320.5z"/>
	</g>
	<g>
		<path class="st1" d="M254.8,432.8l-68.7-14.9l-0.3-1.8l95.8-58.1l1.5,1.2L254.8,432.8z M189,416.5l64.6,14l26.6-69.2L189,416.5z"
			/>
	</g>
	<g>
		<path class="st1" d="M281.6,359.7l-65.8-42l0.2-1.8l42.2-15l24.9,57.5L281.6,359.7z M218.7,317.1l61.3,39.1l-22.8-52.8
			L218.7,317.1z"/>
	</g>
	<g>
		<path class="st1" d="M203.8,99.3L184.4,77L217,26.7l1.8,0.7l-13.3,71.3L203.8,99.3z M186.9,76.9l17,19.6l12-64.3L186.9,76.9z"/>
	</g>
	<g>
		<path class="st1" d="M228.3,451l-42.6-33.3l0.8-1.8l67.9,14.7l0.4,1.8L228.3,451z M190.4,418.8l38,29.7l23.4-16.4L190.4,418.8z"/>
	</g>
	<g>
		<path class="st1" d="M215.7,318.7l-18.5-100.3l1.7-0.8l57.3,67.2L215.7,318.7z M199.9,221.7l17.2,93.3l36.4-30.4L199.9,221.7z"/>
	</g>
	<g>
		<path class="st1" d="M216.7,317.8l-1-1.7l38.5-32.2l1.6,0.6l2.9,18.3L216.7,317.8z M254.2,286.6l-32.8,27.5l35.2-12.5L254.2,286.6
			z"/>
	</g>
	<g>
		<path class="st1" d="M179.4,210.5l24.1-112l1.9-0.1l36.1,99L179.4,210.5z M204.8,102.2L182,207.9l56.8-12L204.8,102.2z"/>
	</g>
	<g>
		<path class="st1" d="M181.4,210.6l-23-10.7l45.2-101.6l1.9,0.6L181.4,210.6z M161.1,198.9l19,8.8l21.5-99.8L161.1,198.9z"/>
	</g>
	<g>
		<path class="st1" d="M207.8,320.3l-10.6-101.9l2-0.3l18.4,99.5L207.8,320.3z M201.8,243.5l7.7,74.2l5.7-1.5L201.8,243.5z"/>
	</g>
	<g>
		<path class="st1" d="M187,418.2l-15.3-5.6l36-94l1.9,0.6L187,418.2z M174.3,411.4l11.3,4.2l19-83.1L174.3,411.4z"/>
	</g>
	<g>
		<path class="st1" d="M198.2,219.4l-17.9-9.3l0.3-1.9l59.5-12.6l0.7,1.9L198.2,219.4z M183.7,209.6l14.6,7.6l34.9-18L183.7,209.6z"
			/>
	</g>
	<g>
		
			<rect x="140.2" y="438.6" transform="matrix(0.5949 -0.8038 0.8038 0.5949 -339.7497 313.5436)" class="st1" width="2" height="110.5"/>
	</g>
	<g>
		<path class="st1" d="M174,412.4l-1.9-0.1l-22-95.7l60.1,1.5L174,412.4z M152.6,318.6l20.7,90l34-88.6L152.6,318.6z"/>
	</g>
	<g>
		<path class="st1" d="M209.8,320l-60-1.5l47.5-100.7l1.9,0.3L209.8,320z M152.9,316.6l54.7,1.3l-10-96L152.9,316.6z"/>
	</g>
	<g>
		<path class="st1" d="M186.4,506.3l-1.8-0.6l0.7-88.8l1.6-0.8l42.7,33.5L186.4,506.3z M187.3,418.9l-0.7,83.8l40.3-52.8
			L187.3,418.9z"/>
	</g>
	<g>
		<path class="st1" d="M152.2,318l-1.9-0.7l29.7-109.6l19.4,10.1L152.2,318z M181.4,210.6l-26.1,96.3l41.6-88.2L181.4,210.6z"/>
	</g>
	<g>
		<path class="st1" d="M185.9,78.3l-69.4-38.9l0.4-1.9l100.7-11.2l0.9,1.5L185.9,78.3z M120.3,39.1l65,36.5l30.5-47.1L120.3,39.1z"
			/>
	</g>
	<g>
		<path class="st1" d="M151.1,414.5l-0.7-96.9l2-0.2l21.9,95.6L151.1,414.5z M152.4,326.7l0.6,85.6l18.8-1.3L152.4,326.7z"/>
	</g>
	<g>
		<path class="st1" d="M184.7,506.1l-34-93.6l23.2-1.5l12.7,94.7L184.7,506.1z M153.4,414.3l30,82.4l-11.2-83.6L153.4,414.3z"/>
	</g>
	<g>
		<path class="st1" d="M184.6,505.9l-12.8-95.4l15.5,5.7l-0.7,89.5L184.6,505.9z M174.2,413.5l10.5,78.1l0.6-74L174.2,413.5z"/>
	</g>
	<g>
		<path class="st1" d="M160.7,199.8l-1.9-0.6l25.9-122.4l1.7-0.4l19.3,22.2l-0.3,0.6L160.7,199.8z M186.2,79.1l-23.5,111.2
			l40.7-91.5L186.2,79.1z"/>
	</g>
	<g>
		<path class="st1" d="M152.3,317.8l-2-0.3l8.5-119.7l23.1,10.8L152.3,317.8z M160.6,200.9l-7.6,106.5l26.5-97.7L160.6,200.9z"/>
	</g>
	<g>
		<path class="st1" d="M160.5,200.5L58.8,179.4l-0.4-1.8L185,76.2l1.6,1L160.5,200.5z M61.3,177.8l97.7,20.3l25.1-118.7L61.3,177.8z
			"/>
	</g>
	<g>
		<path class="st1" d="M185.2,506.6L95,461.2l57.5-49.5l34.1,93.7L185.2,506.6z M98.6,460.8l85.2,43l-32.2-88.6L98.6,460.8z"/>
	</g>
	<g>
		<path class="st1" d="M59.6,179.2l-1.5-1.2l58.5-140.9l70.8,39.7L59.6,179.2z M117.6,39.9L61.4,175.2l122.4-98.1L117.6,39.9z"/>
	</g>
	<g>
		<path class="st1" d="M185,527.5l-88.8-65.8l1-1.7l89.4,45v21.6L185,527.5z M106.8,467.1l77.8,57.6v-18.4L106.8,467.1z"/>
	</g>
	<g>
		<path class="st1" d="M150.5,318.1l-86-123.8l0.9-1.6l95.4,5.7l-8.5,119.2L150.5,318.1z M67.3,194.9l83.2,119.8l8.1-114.4
			L67.3,194.9z"/>
	</g>
	<g>
		<path class="st1" d="M153.1,414.4H86.3l-0.8-1.6l65.1-95.8l1.8,0.6L153.1,414.4z M88.2,412.4H151l-0.7-91.6L88.2,412.4z"/>
	</g>
	<g>
		<path class="st1" d="M58.2,178.9l-41.1-65.8l99.4-75.4l1.5,1.2L59.9,178.8L58.2,178.9z M19.8,113.6l39.1,62.6l55.9-134.7
			L19.8,113.6z"/>
	</g>
	<g>
		<path class="st1" d="M19.8,337.7l44.5-144.2l1.8-0.3l87,125.1L19.8,337.7z M65.7,196l-43,139.2l126.9-18.4L65.7,196z"/>
	</g>
	<g>
		<path class="st1" d="M159.7,200.4l-95.1-5.6l-6.5-16l1.1-1.4l100.7,21L159.7,200.4z M66,192.8l80.2,4.8l-85.5-17.8L66,192.8z"/>
	</g>
	<g>
		<path class="st1" d="M96.2,462.8L85,412.4h67l0.7,1.8L96.2,462.8z M87.5,414.4l9.9,44.7l51.9-44.7H87.5z"/>
	</g>
</g>
<g>
	<g>
		<g>
			<path class="st1" d="M300.7,211.5c0-17.1-10.4-31.8-25.2-38.1c-5-2.1-10.4-3.3-16.1-3.3h-48.7h-0.1l0.1,115.2h25.1v-32.5h18.6
				l15.9,32.5h27.4l-18.8-37.4C291.9,240.9,300.7,227.2,300.7,211.5z M275.6,211.5c0,9-7.3,16.3-16.3,16.3h-23.5v-32.5h23.5
				C268.3,195.2,275.6,202.5,275.6,211.5z"/>
		</g>
		<g>
			<path class="st1" d="M331.9,248.4v-8.9L310.6,259l21.3,20.4v-8.9c20.3,0,32.4,17.6,32.4,35.5c0,17.9-12.5,36.1-32.4,36.1
				c-21.6,0-32.4-18.2-32.4-36.1h-25.2c0,31.8,25.8,57.6,57.6,57.6c31.8,0,57.6-25.8,57.6-57.6C389.6,274.1,363.8,248.4,331.9,248.4
				z"/>
		</g>
	</g>
</g>
</svg>
